# xmcd CD database file
#
# Track frame offsets:
#	183
#	13543
#	25060
#	37558
#	49483
#	61313
#	73473
#	87540
#	102578
#	114893
#	129963
#	145198
#	160253
#	171965
#	183018
#	194303
#	206083
#	218788
#	232303
#	245693
#	259143
#	272750
#
# Disc length: 3792 seconds
#
# Revision: 0
# Processed by: cddbd v1.5.2PL0 Copyright (c) Steve Scherf et al.
# Submitted via: CDex 1.70beta1
#
DISCID=440ece16
DTITLE=Johnny Dodds - Johnny Dodds 1926-1940 Part 1 disc 2
DYEAR=1900
DGENRE=Jazz
TTITLE0=King Oliver and His Dixieland Syncopators - Someday Sweetheart
TTITLE1=Freddie Keppard's Jazz Cardinals - Stockyard Strut
TTITLE2=Salty Dog 1
TTITLE3=Salty Dog 2
TTITLE4=Blyth's Washboard Ragamuffins - Ape Man
TTITLE5=Yours Folks
TTITLE6=Dixie Jug Blowers - House Rent Rag
TTITLE7=Memphis Shake
TTITLE8=Carpet Alley Breakdown 1
TTITLE9=Carpet Alley Breakdown 2
TTITLE10=Hen Party Blues 1
TTITLE11=Hen Party Blues 2
TTITLE12=Jasper Taylor and His State Street Boys - Stomp Time Blues
TTITLE13=It Must Be The Blues
TTITLE14=Dodds and Parham - Oh Daddy
TTITLE15=Loveless Love
TTITLE16=19th Street Blues
TTITLE17=Johnny Dodds Trio - San
TTITLE18=Oh Lizzie (A Lovers Lament) 1
TTITLE19=Oh Lizzie (A Lovers Lament) 2
TTITLE20=The New St Louis Blues
TTITLE21=Clarinet Wobble
EXTD=
EXTT0=
EXTT1=
EXTT2=
EXTT3=
EXTT4=
EXTT5=
EXTT6=
EXTT7=
EXTT8=
EXTT9=
EXTT10=
EXTT11=
EXTT12=
EXTT13=
EXTT14=
EXTT15=
EXTT16=
EXTT17=
EXTT18=
EXTT19=
EXTT20=
EXTT21=
PLAYORDER=
